<svg width="22" height="22" viewBox="0 0 22 22" fill="none" xmlns="http://www.w3.org/2000/svg">
    <path opacity="0.8" fill-rule="evenodd" clip-rule="evenodd"
          d="M12.7559 1.07061C12.0205 -0.356869 9.97952 -0.356871 9.24408 1.07061L8.70319 2.12048C8.26127 2.97824 7.26433 3.39118 6.34533 3.09714L5.22048 2.73724C3.69107 2.24789 2.24789 3.69107 2.73724 5.22048L3.09714 6.34533C3.39118 7.26433 2.97824 8.26127 2.12049 8.70319L1.07061 9.24408C-0.356869 9.97952 -0.356871 12.0205 1.07061 12.7559L2.12048 13.2968C2.97824 13.7387 3.39118 14.7357 3.09714 15.6547L2.73724 16.7795C2.24789 18.3089 3.69107 19.7521 5.22048 19.2628L6.34533 18.9029C7.26433 18.6088 8.26127 19.0218 8.70319 19.8795L9.24408 20.9294C9.97952 22.3569 12.0205 22.3569 12.7559 20.9294L13.2968 19.8795C13.7387 19.0218 14.7357 18.6088 15.6547 18.9029L16.7795 19.2628C18.3089 19.7521 19.7521 18.3089 19.2628 16.7795L18.9029 15.6547C18.6088 14.7357 19.0218 13.7387 19.8795 13.2968L20.9294 12.7559C22.3569 12.0205 22.3569 9.97952 20.9294 9.24408L19.8795 8.70319C19.0218 8.26127 18.6088 7.26433 18.9029 6.34533L19.2628 5.22048C19.7521 3.69107 18.3089 2.24789 16.7795 2.73724L15.6547 3.09714C14.7357 3.39118 13.7387 2.97824 13.2968 2.12049L12.7559 1.07061ZM11 16.5307C14.0545 16.5307 16.5307 14.0545 16.5307 11C16.5307 7.94545 14.0545 5.46926 11 5.46926C7.94547 5.46926 5.46928 7.94545 5.46928 11C5.46928 14.0545 7.94547 16.5307 11 16.5307Z"
          fill="#24332B"/>
</svg>