<svg width="121" height="98" viewBox="0 0 121 98" fill="none" xmlns="http://www.w3.org/2000/svg">
<g opacity="0.2">
<path d="M57.4919 18.4924C57.4919 8.44215 49.0431 -2.61111e-05 38.9995 -2.61111e-05C28.9427 -2.61111e-05 20.5005 8.44215 20.5005 18.4924V20.5024H18.4971C8.44029 20.5024 0.00469971 28.9446 0.00469971 39.3968C0.00469971 49.447 8.44029 57.8892 18.4971 57.8892H57.4919V18.4924Z" fill="white"/>
<g opacity="0.5">
<path d="M57.4919 102.508C57.4919 112.564 49.0431 121 38.9995 121C28.9427 121 20.5005 112.564 20.5005 102.508V100.498H18.4971C8.44029 100.498 0.00469971 92.0554 0.00469971 82.0052C0.00469971 71.955 8.44029 63.5194 18.4971 63.5194H57.4919V102.508Z" fill="white"/>
</g>
<g opacity="0.5">
<path d="M63.5229 18.4924C63.5229 8.44215 71.5631 -2.61111e-05 82.0087 -2.61111e-05C92.0589 -2.61111e-05 100.501 8.44215 100.501 18.4924V20.5024H102.511C112.561 20.5024 120.997 28.9446 120.997 39.3968C120.997 49.447 112.561 57.8892 102.511 57.8892H63.5229V18.4924Z" fill="white"/>
</g>
<path d="M63.5229 102.508C63.5229 112.564 71.5631 121 82.0087 121C92.0589 121 100.501 112.564 100.501 102.508V100.498H102.511C112.561 100.498 120.997 92.0554 120.997 82.0052C120.997 71.955 112.561 63.5194 102.511 63.5194H63.5229V102.508Z" fill="white"/>
</g>
</svg>
